<?xml version="1.0" encoding="UTF-8"?>
<svg width="512px" height="512px" viewBox="0 0 512 512" version="1.1" xmlns="http://www.w3.org/2000/svg" xmlns:xlink="http://www.w3.org/1999/xlink">
    <!-- Generator: Sketch 48.2 (47327) - http://www.bohemiancoding.com/sketch -->
    <title>Group 2</title>
    <desc>Created with Sketch.</desc>
    <defs></defs>
    <g id="Page-1" stroke="none" stroke-width="1" fill="none" fill-rule="evenodd">
        <g id="Group-2">
            <rect id="Rectangle" fill="#63AE82" x="0" y="0" width="512" height="512"></rect>
            <g id="Group" transform="translate(125.000000, 108.000000)" fill="#FFFFFF">
                <polygon id="Path" points="0 0 48.0645353 0 131.151776 34.7701253 213.484455 0 262 0 262 70.8838299 213.484455 91.9499486 213.484455 52.0962811 131 91.9499486 48.0645353 52.0962811 48.0645353 161.211958 0 183"></polygon>
                <path d="M55.3795124,197.191634 L10,215.563218 C21.4576678,236.484375 30.3390854,250.402013 36.644253,257.316131 C52.5565357,274.765214 70.4115129,281.966067 79.1792368,286.337506 C116.883037,305.135985 169.316362,292.392395 188.834059,282.63858 C209.407122,272.357355 240.309276,249.811695 252.21136,215.563218 C262.926407,184.730463 263,142.036707 263,109 L213.945678,128.217841 C217.355433,184.013949 201.848488,220.743723 167.424842,238.407161 C142.605954,251.142212 107.038846,249.657713 79.1792368,229.7462 C71.9915709,224.609111 64.0583294,213.757589 55.3795124,197.191634 Z" id="Path-2"></path>
            </g>
        </g>
    </g>
</svg>